<svg xmlns="http://www.w3.org/2000/svg" width="359" height="359">
  <path fill="#C7C9D1" fill-rule="evenodd" d="M297.988 166.952c-2.775 0-5.012-2.222-5.012-4.977 0-2.755 2.237-4.976 5.012-4.976 2.774 0 5.012 2.221 5.012 4.976s-2.238 4.977-5.012 4.977zm.013-9.514c-2.586 0-4.515 1.969-4.515 4.537 0 2.514 1.955 4.537 4.515 4.537 2.561 0 4.489-2.036 4.489-4.55 0-2.543-1.916-4.524-4.489-4.524zm2.559 7.48h-.563l-1.783-2.714h-1.541v-.439h1.261c.898 0 1.876-.094 1.876-1.12 0-.905-.79-1.17-1.5-1.17h-1.638v5.443h-.51v-5.881h2.225c1.342 0 1.932.558 1.932 1.622 0 .959-.685 1.424-1.53 1.558l1.771 2.701zm-21.463-7.637h10.235v44.716h-10.235v-44.716zm-13.562 44.716l-11.518-28.709-6.14 19.31h9.467v9.399h-23.031l14.587-44.716h9.469l17.911 44.716h-10.745zm-51.437 0h-19.193v-44.716h19.193c6.653 0 20.215 3.303 20.215 22.359s-13.562 22.357-20.215 22.357zm-2.303-35.314h-6.398v25.915h6.398c4.094 0 11.517-1.527 11.517-12.958 0-11.433-7.421-12.957-11.517-12.957zm-47.855 11.686v23.628h-10.236v-44.716h8.444l16.122 23.374v-23.374h10.235v44.716h-8.188l-16.377-23.628zm-35.57-5.081l-6.143 19.31h9.47v9.399h-23.032l14.587-44.716h9.468l17.913 44.716h-10.748l-11.515-28.709zm-33.013 28.711H69v-44.718h24.311c8.445 0 12.794 7.369 12.794 11.18 0 3.812-1.28 8.384-4.606 11.179 5.375 2.287 5.886 6.351 5.886 10.417s-3.582 11.942-12.028 11.942zm-6.141-25.917c4.862 0 5.63-3.049 5.63-4.574 0-1.522-.641-4.827-5.502-4.827h-9.852v25.917h10.235c5.375 0 5.63-3.368 5.63-4.638 0-1.268-.255-4.764-5.886-4.764h-4.093v-7.114h3.838z"/>
</svg>
