<svg xmlns="http://www.w3.org/2000/svg" width="359" height="359">
  <path fill="#C7C9D1" fill-rule="evenodd" d="M282.328 164.251l-14.353 30.867c-1.002 2.166-3.526 6.815-10.812 6.881h-23.114c-4.357-.066-5.037-5.296-3.914-7.81l14.726-31.611c2.403-5.098 6.772-5.582 9.133-5.578h24.792c1.973-.004 5.759 2.514 3.542 7.251zm-24.233 4.65l-9.879 21.198h5.965l10.066-21.198h-6.152zm-50.329 33.098l7.829-16.549h-6.151l-7.829 16.549h-16.031L206.648 157h16.03l-7.828 16.549h6.151L228.643 157h16.031l-20.691 44.999h-16.217zm-12.303-26.404h-15.098l3.168-6.694h-5.592l-10.066 21.198h5.593l3.355-7.066h15.285l-5.778 12.086c-.909 2.166-3.433 6.814-10.626 6.88h-21.995c-4.21-.066-4.89-5.296-3.728-7.809l14.726-31.611c2.365-5.098 6.733-5.583 9.133-5.578h23.301c2.066-.005 5.852 2.514 3.728 7.251l-5.406 11.343zm-50.515-6.695l-2.237 4.649h14.539l-5.592 11.9h-14.539l-2.051 4.649h14.353l-5.405 11.901h-23.301c-4.225-.066-4.905-5.296-3.728-7.81l14.726-31.611c2.349-5.098 6.718-5.582 9.134-5.578h24.046l-5.406 11.9h-14.539zm-19.2-6.322l-15.099 32.355c-1.149 2.447.21 6.515 3.169 7.066h-9.879c-4.245-.066-4.925-5.296-3.728-7.81l14.725-31.611c2.331-5.098 6.699-5.582 9.134-5.578h8.948c-2.451-.004-5.946 2.611-7.27 5.578zm-13.608 0l-14.912 32.355c-1.223 2.447.136 6.515 3.169 7.066h-6.524c-4.276-.066-4.956-5.296-3.728-7.81l14.726-31.611c2.299-5.098 6.667-5.582 9.134-5.578h5.405c-2.338-.004-5.833 2.611-7.27 5.578zm-10.065 0l-15.099 32.355c-1.165 2.447.194 6.515 3.169 7.066h-4.66c-4.237-.066-4.917-5.296-3.729-7.81l14.726-31.611c2.338-5.098 6.707-5.582 9.134-5.578h3.728c-2.466-.004-5.961 2.611-7.269 5.578zm-8.389 0l-14.912 32.355c-1.216 2.447.144 6.515 3.169 7.066h-1.678c-4.26-.066-4.94-5.296-3.728-7.81l14.726-31.611c2.315-5.097 6.683-5.582 9.134-5.578-2.451-.004-5.266 2.611-6.711 5.578z"/>
</svg>
