<svg xmlns="http://www.w3.org/2000/svg" width="359" height="359">
  <path fill="#C7C9D1" fill-rule="evenodd" d="M111.603 157.999h7.961v25.72c0 13.531-8.489 18.28-20.804 18.28-12.271 0-20.76-4.749-20.76-18.28V159.03c0-.717.352-1.031 1.055-1.031h7.961v25.316c0 8.11 3.519 11.471 11.744 11.471 8.269 0 11.787-3.361 11.787-11.471V159.03c0-.717.352-1.031 1.056-1.031zm90.122 7.035v10.843h20.144c.352 0 .484.179.352.538l-2.199 5.556c-.22.493-.528.717-1.188.717h-11.831c-3.871 0-5.278 1.21-5.278 3.854v7.661h27.269c.352 0 .484.18.352.538l-2.287 5.78c-.22.493-.528.717-1.188.717h-29.864c-2.287 0-3.167-.807-3.167-2.554v-37.682c0-2.106 1.144-3.003 4.134-3.003h32.02c.352 0 .484.18.352.493l-2.287 5.826c-.22.493-.528.716-1.188.716h-24.146zm-25.291 24.241c0 8.647-5.981 11.963-14.382 11.963h-22.256c-2.331 0-3.166-.807-3.166-2.554v-37.682c0-2.106 1.099-3.003 4.134-3.003h18.077c7.917 0 15.57 1.39 15.57 10.978 0 4.122-1.451 7.617-4.926 9.454 4.794 1.3 6.949 5.69 6.949 10.844zm-31.052-13.264h14.119c4.662 0 5.981-1.836 5.981-5.6 0-3.764-1.319-5.556-5.981-5.556h-14.119v11.156zm22.124 12.457c0-3.988-1.364-5.959-6.378-5.959h-10.424c-3.87 0-5.322 1.21-5.322 3.853v8.021h15.746c5.014 0 6.378-1.972 6.378-5.915zm116.995 12.77h-8.093c-.66 0-.924-.269-1.188-.717l-8.576-15.772h-7.873c-3.871 0-5.322 1.21-5.322 3.853v12.636h-7.741c-.704 0-1.056-.359-1.056-1.031v-39.205c0-2.106 1.144-3.003 4.135-3.003h18.165c10.6 0 16.977 2.823 16.977 13.308 0 8.11-3.826 11.291-8.577 12.546l9.545 16.623c.176.269.176.762-.396.762zm-9.5-29.752c0-4.391-1.188-6.541-6.73-6.541h-14.822v13.083h14.822c5.542 0 6.73-2.106 6.73-6.542z"/>
</svg>
