<svg xmlns="http://www.w3.org/2000/svg" width="359" height="359">
  <path fill="#C7C9D1" fill-rule="evenodd" d="M243.102 203.987c-3.425-.227-6.089-1.297-8.189-3.291-.854-.811-1.757-2.036-2.278-3.097-.088-.18-.172-.326-.187-.326-.014 0-.232.128-.485.287-.556.348-2.234 1.319-2.947 1.705-4.676 2.532-9.488 4.03-14.347 4.463-1.554.139-3.379.163-4.496.059-2.486-.231-4.506-.947-6.139-2.176-.409-.308-1.38-1.261-1.692-1.662-.313-.409-.602-.836-.865-1.279l-.175-.306-.527.457c-2.887 2.505-5.883 4.07-8.851 4.625-1.431.268-2.963.297-4.035.077-1.491-.304-2.574-1.085-3.19-2.298-.708-1.395-.878-3.289-.54-6.011.202-1.628.376-2.498 1.091-5.474.382-1.583.716-3.42.838-4.605.073-.702.073-1.731.001-2.211-.158-1.059-.549-1.671-1.245-1.954-.247-.101-.877-.121-1.19-.039-1.294.338-2.794 1.923-4.484 4.736-2.332 3.881-3.611 7.524-3.958 11.269-.073.782-.062 2.99.018 3.706.089.81.258 1.618.455 2.19.092.267.177.519.19.558.022.07-.01.071-1.163.049-1.284-.024-2.094-.088-2.978-.235-3.201-.533-5.013-1.825-5.803-4.141-.476-1.395-.607-2.901-.449-5.141.109-1.542.326-2.816.797-4.68.436-1.724.646-2.808.785-4.043.077-.695.089-1.991.019-2.338-.226-1.131-.752-1.735-1.684-1.934-.189-.04-.397-.053-.681-.042-.344.014-.455.034-.695.129-1.209.481-2.5 2.068-3.856 4.748-1.51 2.979-2.446 6.155-2.771 9.395-.176 1.754-.175 4.252.003 5.897.095.882.292 1.835.483 2.336.027.07 0 .07-1.01.047-1.512-.033-2.499-.154-3.602-.436-1.635-.418-2.952-1.162-3.859-2.175-.617-.689-1.149-1.713-1.457-2.805-.033-.124-.071-.248-.114-.369-.008-.009-.169.126-.358.301-2.716 2.494-5.181 4.06-7.796 4.953-1.446.494-3.028.768-4.427.768-2.062 0-3.541-.719-4.503-2.189-.383-.586-.596-1.081-.789-1.838-.373-1.455-.305-3.233.228-5.987.35-1.808.708-3.267 1.538-6.27.596-2.159 1.005-3.676 1.254-4.661.197-.776.209-.849.206-1.254-.011-1.328-.543-2.099-1.46-2.112-.257-.003-.302.009-.579.152-.41.212-.734.424-1.529.996l-.677.488-.1.303c-.552 1.682-1.765 4.129-3.164 6.386-1.542 2.486-3.897 5.74-5.919 8.181-3.958 4.776-7.355 7.369-10.351 7.9-.559.1-1.392.094-1.812-.012-1.857-.467-3.399-2.358-4.735-5.81-.113-.293-.676-2.336-1.746-6.346-.571-2.148-1.147-4.294-1.728-6.439-.539-1.89-1.247-3.623-1.865-4.563-.475-.722-1.07-1.192-1.574-1.243-.204-.021-.237-.011-.555.148-.331.169-1.288.788-2.107 1.365-.229.162-.437.305-.461.32-.029.016-.354-.382-.907-1.108-.302-.399-.607-.797-.913-1.193-.046-.054.025-.129.609-.656 1.322-1.195 2.638-2.398 3.948-3.606 1.794-1.661 2.834-2.513 4.035-3.307 1.283-.848 2.095-1.172 3.047-1.214 2.397-.106 3.988 1.341 4.851 4.412.206.733.299 1.223.613 3.217.82 5.201 1.167 7.077 1.708 9.243.644 2.577 1.359 4.08 2.121 4.458.205.103.268.116.452.103.834-.065 2.025-1.375 3.659-4.026 1.347-2.186 2.163-3.945 2.453-5.291.072-.336.084-.504.086-1.196.001-.669-.011-.846-.066-1.048-.191-.685-.547-1.143-1.103-1.418-.45-.223-.752-.28-1.468-.28-.838 0-1.574.139-2.412.458-.235.09-.38.127-.386.101-.006-.023.082-.314.193-.647.673-1.996 1.463-3.538 2.496-4.877.375-.485 1.116-1.253 1.554-1.61.732-.596 1.706-1.158 2.562-1.476 1.876-.699 4.424-.818 6.046-.284 2.206.726 3.372 2.588 3.625 5.793l.025.309.175-.158c.095-.089.75-.694 1.454-1.346 2.899-2.687 4.585-3.9 6.001-4.318.273-.08.44-.102.914-.12 1.771-.065 2.998.506 3.846 1.787.771 1.169 1.121 2.687 1.017 4.427-.029.499-.085.836-.405 2.446-.592 2.986-1.198 6.432-1.863 10.59-.22 1.384-.226 1.437-.205 1.932.054 1.244.314 2.014.875 2.583.211.213.35.317.559.418.498.238 1.21.32 1.693.193.28-.073.86-.351 1.318-.632.829-.507 2.624-1.896 2.654-2.053.009-.046.069-.497.133-1 .064-.504.282-1.911.483-3.126.388-2.343.587-3.732.704-4.924.096-.964.165-2.158.142-2.446-.052-.655-.473-1.003-1.004-.83-.368.121-1.142.598-2.215 1.367-.443.318-.542.374-.581.332-.22-.235-2.025-2.33-2.023-2.348.002-.013.098-.106.214-.208.322-.281 1.952-1.812 3.909-3.671 2.391-2.272 3.105-2.91 4.099-3.663.753-.57 1.337-.915 1.832-1.08.217-.072.331-.085.74-.082.291.001.587.025.743.061 1.031.231 1.84.821 2.509 1.829.69 1.04 1.112 2.142 1.308 3.418.106.695.116 2.052.019 2.614-.035.2-.064.384-.064.409 0 .025.113-.122.251-.327.957-1.42 2.299-2.828 3.795-3.98.419-.323 1.382-.967 1.808-1.211 2.122-1.211 4.477-1.89 6.82-1.964 2.182-.069 3.822.46 4.943 1.596.422.428.768.926 1.023 1.472.504 1.059.741 2.204.793 3.818l.024.776.651-.577c.417-.37.796-.748 1.059-1.056.506-.594 1.489-1.612 2.081-2.158 2.38-2.191 4.896-3.44 7.638-3.789.66-.084 1.78-.112 2.341-.058 1.62.155 2.867.694 3.736 1.619 1.34 1.421 1.897 3.321 1.764 6.015-.096 1.933-.39 3.735-1.194 7.306-1.009 4.486-1.157 5.432-1.038 6.655.094.969.294 1.39.789 1.657.364.194.681.264 1.313.287.534.019.57.016.855-.08.35-.118.831-.367 1.312-.678.278-.18.34-.236.327-.298-.059-.248-.104-1.565-.084-2.377.064-2.623.625-4.893 1.809-7.319.807-1.655 1.77-3.133 3.051-4.679 3.744-4.521 8.208-7.313 13.227-8.272 2.05-.391 4.463-.492 6.244-.261 3.379.438 5.492 1.91 6.434 4.481.307.838.477 1.771.505 2.781.031 1.061-.067 1.741-.396 2.748-.735 2.247-2.402 4.482-5.107 6.846-3.177 2.776-7.093 4.713-11.545 5.708-.61.137-1.738.363-1.811.363-.044 0 .377.489.639.743.841.815 1.881 1.282 3.179 1.431.497.056 2.307.024 3.159-.057 3.569-.34 7.066-1.304 11.176-3.078l.837-.362-.022-.208c-.114-1.09-.117-2.641-.005-3.729.292-2.867 1.27-5.564 2.945-8.123.676-1.034 1.281-1.817 2.242-2.902 2.056-2.322 4.008-3.871 6.409-5.094 2.736-1.392 5.623-2.089 8.939-2.157 1.41-.029 2.368.046 3.492.276 1.586.322 3.046.97 4.268 1.891.737.556 1.652 1.537 2.329 2.501 1.634 2.322 2.444 5.371 2.349 8.853-.087 3.177-.718 6.011-1.938 8.707-1.091 2.413-2.883 4.904-4.881 6.785-3.085 2.906-6.61 4.511-10.861 4.95-.549.058-2.698.103-3.212.069zm2.638-7.504c2.239-.274 4.215-1.837 5.904-4.67 1.728-2.901 2.584-5.995 2.503-9.047-.033-1.238-.185-2.16-.526-3.187-.31-.936-.626-1.502-1.05-1.884-.451-.404-.86-.512-1.718-.45-.973.07-1.829.298-2.659.708-1.579.777-2.884 2.092-4.107 4.131-1.584 2.641-2.418 5.296-2.604 8.282-.1 1.598.143 2.926.762 4.175.434.872.996 1.491 1.605 1.765.457.206 1.132.269 1.89.177zm-34.55-6.572c3.444-1.386 6.557-3.84 8.396-6.62.573-.865.935-1.686 1.049-2.379.055-.328.028-.949-.056-1.301-.066-.28-.236-.63-.391-.808-.155-.177-.437-.353-.715-.445-.278-.093-1.06-.112-1.422-.035-1.537.328-3.05 1.512-4.572 3.582-1.654 2.247-2.558 4.367-2.767 6.49-.054.547-.051 1.689.005 1.689.023.001.236-.077.473-.173zm-73.749-24.983c-.853-.078-1.719-.322-2.278-.642-.309-.177-.787-.606-.996-.891-.3-.412-.519-.976-.631-1.626-.087-.505-.077-1.466.02-1.945.198-.979.725-1.9 1.623-2.836 1.675-1.748 3.659-2.756 5.821-2.956 1.33-.124 2.291.097 3.104.714.769.584 1.468 1.588 1.737 2.496.133.446.164 1.213.073 1.756-.212 1.259-.908 2.454-2.131 3.653-1.297 1.272-2.682 1.979-4.357 2.221-.489.071-1.501.099-1.985.056z"/>
</svg>
