<svg xmlns="http://www.w3.org/2000/svg" width="359" height="359">
  <path fill="#C7C9D1" fill-rule="evenodd" d="M286 202.173h-14.605L261.1 187.686l-10.221 14.487h-14.15l17.678-23.674-16.61-21.532 14.277-.001 8.967 12.364 8.725-12.363h14.066l-15.87 21.532L286 202.173zm-66.448 0l-10.304-14.487-10.216 14.487H184.88l17.676-23.674-16.61-21.532 14.279-.001 8.964 12.364 8.728-12.363h14.062l-15.867 21.532 18.038 23.674h-14.598zm-66.848-21.67c-.553-.002-1.002-.452-1.002-1.008 0-.46.31-.848.729-.966l30.722-11.026c3.158 6.516 2.569 13 2.569 13h-33.018zm9.535-14.716c-7.465 0-13.517 6.164-13.517 13.767 0 7.601 6.052 13.768 13.517 13.768 4.583 0 8.633-2.327 11.078-5.881l8.467 6.62c-4.398 6.03-11.454 9.939-19.411 9.939-13.328 0-24.134-10.97-24.134-24.502 0-13.53 10.806-24.498 24.134-24.498 7.147 0 13.569 3.193 17.987 8.207l-8.566 6.611c-2.445-2.492-5.826-4.031-9.555-4.031zm-42.378 10.785l-16.769 23.144L86.2 176.572l-.002 25.601H76v-45.206l9.695-.001 17.47 23.759 17.197-23.758h9.85l.002 45.206h-10.356l.003-25.601z"/>
</svg>
