<svg xmlns="http://www.w3.org/2000/svg" width="359" height="359">
  <path fill="#C7C9D1" fill-rule="evenodd" d="M282.776 201.937h-6.391c-.591-.038-1.069-.473-1.133-1.029v-17.742c0-3.575.417-8.801-3.989-8.801-1.55 0-2.978 1.029-3.69 2.611-.891 1.994-1.012 3.988-1.012 6.19v17.598c-.015.655-.564 1.177-1.242 1.177h-6.354c-.636-.042-1.144-.544-1.144-1.173l-.008-32.691c.053-.602.58-1.067 1.224-1.067l5.914-.004c.557.03 1.015.408 1.133.916v4.998h.121c1.784-4.472 4.285-6.603 8.687-6.603 2.857 0 5.653 1.033 7.441 3.852C284 172.78 284 177.181 284 180.347v20.561c-.072.579-.591 1.029-1.224 1.029zm-44.311.689c-9.282 0-14.343-8.116-14.343-18.222-.004-10.178 5.118-18.087 14.343-18.087 9.464 0 14.582 8.116 14.582 18.431 0 9.97-5.652 17.878-14.582 17.878zm4.224-26.475c-.716-2.27-2.144-3.163-4.163-3.163-4.702 0-5.001 6.394-5.001 10.382 0 3.989-.061 12.517 4.94 12.517 4.94 0 5.179-6.879 5.179-11.071 0-2.751-.121-6.05-.955-8.665zm-23.178 24.806c-6.448-3.375-15.011-3.742-22.141.042-.727.386-1.492-.397-1.492-1.082v-4.737c0-.757.015-2.055.78-3.209l12.578-18.018h-10.953c-.67 0-1.204-.481-1.212-1.181v-4.665c.008-.715.538-1.188 1.186-1.184l20.958-.004c.671 0 1.209.488 1.209 1.176v4.008c-.008.669-.576 1.547-1.58 2.94l-10.854 15.479c4.027-.095 8.293.51 11.953 2.562.826.465 1.049 1.149 1.114 1.823v4.983c0 .685-.754 1.484-1.546 1.067zm-3.622 3.958c1.315 1.623-.345 12.864-6.766 18.23-.989.825-1.925.386-1.489-.704 1.439-3.606 4.679-11.672 3.144-13.633-1.534-1.956-10.119-.927-13.976-.465-1.167.144-1.349-.877-.295-1.619 6.849-4.806 18.075-3.417 19.382-1.809zm-10.093 9.573C193.828 223.311 176.473 228 161.534 228c-20.943 0-39.799-7.734-54.07-20.599-1.118-1.01-.121-2.391 1.223-1.608 15.397 8.948 34.435 14.337 54.101 14.337 13.264 0 27.846-2.751 41.265-8.435 2.027-.859 3.725 1.328 1.743 2.793zm-18.984-12.623l-.019-.007c-.421.378-1.031.405-1.508.147-2.118-1.755-2.497-2.569-3.656-4.241-3.497 3.56-5.975 4.627-10.51 4.627-5.368 0-9.543-3.307-9.543-9.924 0-5.169 2.807-8.684 6.8-10.406 3.459-1.517 8.294-1.793 11.991-2.205v-.829c0-1.517.122-3.307-.776-4.617-.777-1.172-2.266-1.657-3.581-1.657-2.428 0-4.591 1.245-5.126 3.826-.109.575-.53 1.142-1.106 1.173l-6.179-.67c-.523-.121-1.102-.534-.951-1.332 1.421-7.488 8.191-9.75 14.257-9.75 3.102 0 7.156.824 9.603 3.17 3.103 2.895 2.804 6.754 2.804 10.958v9.92c0 2.986 1.243 4.295 2.406 5.9.409.578.5 1.267-.019 1.691-1.303 1.09-3.614 3.095-4.887 4.226zm-6.445-15.532v-1.377c-4.61 0-9.483.984-9.483 6.406 0 2.758 1.433 4.619 3.876 4.619 1.788 0 3.398-1.101 4.414-2.894 1.254-2.206 1.193-4.271 1.193-6.754zm-24.345 14.431c0 .651-.549 1.173-1.231 1.173h-6.369c-.637-.042-1.14-.545-1.14-1.173l-.004-17.329c0-1.374.121-4.813-.178-6.118-.478-2.202-1.902-2.819-3.747-2.819-1.546 0-3.152 1.029-3.808 2.679-.655 1.653-.594 4.4-.594 6.258v17.325c0 .651-.55 1.174-1.232 1.174h-6.365c-.64-.042-1.144-.545-1.144-1.174l-.007-17.329c0-3.644.591-9.005-3.929-9.005-4.584 0-4.402 5.225-4.402 9.005l-.004 17.326c-.011.662-.561 1.184-1.243 1.184h-6.372c-.606-.042-1.091-.495-1.141-1.075l.008-32.68c0-.654.549-1.176 1.231-1.176l5.941-.004c.621.03 1.117.499 1.155 1.097v4.265h.122c1.545-4.125 4.463-6.051 8.391-6.051 3.99 0 6.49 1.926 8.271 6.051 1.549-4.125 5.057-6.051 8.812-6.051 2.678 0 5.592 1.102 7.376 3.576 2.027 2.754 1.61 6.738 1.61 10.246l-.007 20.625zm-52.79 1.105l-.015-.011c-.421.378-1.031.405-1.508.147-2.118-1.755-2.497-2.569-3.656-4.241-3.501 3.56-5.979 4.627-10.51 4.627-5.372 0-9.543-3.307-9.543-9.924 0-5.169 2.804-8.684 6.8-10.406 3.459-1.517 8.29-1.793 11.987-2.205v-.829c0-1.517.122-3.307-.776-4.617-.777-1.172-2.266-1.657-3.577-1.657-2.432 0-4.595 1.245-5.126 3.826-.109.575-.53 1.142-1.106 1.173l-6.179-.67c-.523-.121-1.103-.534-.955-1.332 1.421-7.488 8.191-9.747 14.26-9.747 3.103 0 7.157.825 9.605 3.171 3.102 2.895 2.803 6.754 2.803 10.958v9.921c0 2.985 1.243 4.294 2.406 5.898.409.58.5 1.268-.019 1.692-1.303 1.09-3.618 3.095-4.891 4.226zm-6.445-15.536v-1.377c-4.61 0-9.482.984-9.482 6.406 0 2.758 1.432 4.619 3.875 4.619 1.792 0 3.402-1.101 4.414-2.894 1.254-2.206 1.193-4.271 1.193-6.754z"/>
</svg>
