<svg xmlns="http://www.w3.org/2000/svg" width="359" height="359">
  <path fill="#C7C9D1" fill-rule="evenodd" d="M254.971 192.897c1.614 3.161 4.12 4.765 7.63 4.765 3.522 0 5.96-1.728 7.744-4.359l5.361 3.58c-1.727 2.551-5.892 6.967-13.105 6.967-8.94 0-15.611-6.911-15.611-15.73 0-9.35 6.728-15.731 14.832-15.731 8.162 0 12.157 6.505 13.467 10.017l.711 1.784-21.029 8.707zm7.1-14.42c-3.522 0-8.398 3.093-8.218 9.18l14.054-5.838c-.768-1.976-3.093-3.342-5.836-3.342zm-25.319-21.818h6.908v46.242h-6.908v-46.242zm-19.72 61.34c-7.631 0-12.213-5.126-13.94-9.293l6.016-2.507c1.072 2.564 3.691 5.601 7.924 5.601 5.181 0 8.398-3.218 8.398-9.237v-2.27h-.237c-1.558 1.909-4.537 3.58-8.285 3.58-7.856 0-15.069-6.855-15.069-15.674 0-8.887 7.201-15.798 15.069-15.798 3.759 0 6.739 1.66 8.285 3.512h.237v-2.564h6.558v28.265c0 11.62-6.851 16.385-14.956 16.385zm.474-39.41c-4.763 0-8.759 4.054-8.759 9.599 0 5.477 3.996 9.474 8.759 9.474 4.707 0 8.398-3.986 8.398-9.474 0-5.545-3.691-9.599-8.398-9.599zm-34.315 25.272c-8.703 0-15.792-6.674-15.792-15.73 0-9.113 7.089-15.73 15.792-15.73s15.792 6.606 15.792 15.73c0 9.056-7.089 15.73-15.792 15.73zm0-25.261c-4.763 0-8.872 3.874-8.872 9.531 0 5.601 4.109 9.531 8.872 9.531 4.775 0 8.884-3.93 8.872-9.531 0-5.657-4.108-9.531-8.872-9.531zm-34.428 25.261c-8.703 0-15.792-6.674-15.792-15.73 0-9.113 7.089-15.73 15.792-15.73s15.792 6.606 15.792 15.73c0 9.056-7.089 15.73-15.792 15.73zm0-25.261c-4.763 0-8.872 3.874-8.872 9.531 0 5.601 4.109 9.531 8.872 9.531 4.764 0 8.872-3.93 8.872-9.531 0-5.657-4.108-9.531-8.872-9.531zm-40.986 25.273C94.322 203.873 83 192.908 83 179.436c0-13.471 11.31-24.437 24.777-24.437 7.45 0 12.744 2.914 16.74 6.731l-4.707 4.708c-2.856-2.676-6.728-4.765-12.033-4.765-9.832 0-17.508 7.916-17.508 17.752 0 9.835 7.676 17.762 17.508 17.762 6.366 0 10.001-2.563 12.326-4.889 1.908-1.909 3.161-4.652 3.635-8.401h-15.961v-6.663h22.451c.237 1.186.362 2.62.362 4.167 0 5.014-1.366 11.202-5.78 15.617-4.289 4.472-9.764 6.855-17.033 6.855z"/>
</svg>
