<svg id="Layer_5" enable-background="new 0 0 64 64" height="512" viewBox="0 0 64 64" width="512" xmlns="http://www.w3.org/2000/svg"><circle cx="32" cy="50" r="5"/><circle cx="32" cy="17" r="6"/><path d="m28.82 30.683.844-5.683h-2.254c.326 1.937.794 3.835 1.41 5.683z"/><path d="m30.288 34.415c.4.876.84 1.736 1.308 2.585h.808c.477-.865.926-1.741 1.332-2.634l-1.419-9.366h-.632z"/><path d="m35.193 30.64c.609-1.835 1.073-3.718 1.396-5.64h-2.251z"/><path d="m22.413 31.595c.139-.37.347-.702.587-1.013l2-1.582v9.615l.48-.48 2.136 1.28.603-2.415h1.104c-1.931-3.735-3.241-7.72-3.918-11.877-3.137.517-5.844 2.683-6.981 5.718l-.78 2.076-6.342-5.437c-.809-.689-2.128-.59-2.819.218-.435.505-.585 1.174-.412 1.835.125.477.457.838.713 1.058l6.387 5.474c1.151.989 2.737 1.214 4.136.589.924-.412 1.687-1.271 2.093-2.354z"/><path d="m40.052 45.95 1.296-2.159-3.139-3.139-2.159 1.296-1.143-.465-.202-.534-.486-1.949h-4.438l-.612 2.452-1.219.496-2.159-1.296-3.139 3.139 1.296 2.159-.465 1.143-.534.202-1.949.486v4.438l2.452.612.496 1.219-1.296 2.159 3.139 3.139 2.159-1.296 1.143.465.202.534.486 1.949h4.438l.612-2.452 1.219-.496 2.159 1.296 3.139-3.139-1.296-2.159.465-1.143.534-.202 1.949-.486v-4.438l-2.452-.612zm-8.052 11.05c-3.859 0-7-3.141-7-7s3.141-7 7-7 7 3.141 7 7-3.141 7-7 7z"/><path d="m55.218 30.591c.256-.22.588-.581.712-1.058.173-.661.022-1.33-.411-1.834-.693-.809-2.013-.91-2.82-.217l-6.344 5.436-.777-2.077c-1.138-3.035-3.845-5.2-6.982-5.718-.678 4.157-1.988 8.142-3.919 11.877h1.104l.603 2.415 2.136-1.28.48.48v-9.615l2 1.575c.241.314.448.65.587 1.021l1.015 2.704c.406 1.083 1.169 1.94 2.094 2.354 1.397.625 2.983.402 4.134-.588z"/><path d="m52 21c4.963 0 9-4.037 9-9s-4.037-9-9-9-9 4.037-9 9 4.037 9 9 9zm1-8h-2c-1.654 0-3-1.346-3-3v-3h3v-2h2v2c1.654 0 3 1.346 3 3h-2c0-.552-.448-1-1-1h-3v1c0 .552.448 1 1 1h2c1.654 0 3 1.346 3 3v3h-3v2h-2v-2c-1.654 0-3-1.346-3-3h2c0 .552.448 1 1 1h3v-1c0-.552-.448-1-1-1z"/><path d="m8.764 23c1.233 0 2.236-1.003 2.236-2.236v-1.764h7c1.654 0 3-1.346 3-3v-8c0-1.654-1.346-3-3-3h-14c-1.654 0-3 1.346-3 3v8c0 1.654 1.346 3 3 3h1.382l1.383 2.765c.381.761 1.147 1.235 1.999 1.235zm8.236-8h-2v-2h2zm-12-6h12v2h-12zm0 6v-2h8v2z"/><path d="m60 45h-10c-1.654 0-3 1.346-3 3v8c0 1.654 1.346 3 3 3h10c1.654 0 3-1.346 3-3v-8c0-1.654-1.346-3-3-3zm-4 9.414-2-2-2.293 2.293-1.414-1.414 3.707-3.707 2 2 2.293-2.293 1.414 1.414z"/><path d="m10.172 44h-.344c-2.11 0-3.828 1.718-3.828 3.828v1.172h2v-1.172c0-1.008.82-1.828 1.828-1.828h.344c1.008 0 1.828.82 1.828 1.828 0 .481-.195.953-.535 1.293l-2.465 2.465v3.414h2v-2.586l1.879-1.879c.723-.723 1.121-1.684 1.121-2.707 0-2.11-1.718-3.828-3.828-3.828z"/><circle cx="10" cy="60" r="3"/></svg>